/* XPM */
static char *dummy[]={
"32 32 101 2",
"Qt c None",
".# c #000000",
".V c #010100",
".p c #070700",
".X c #090900",
".W c #0a0a00",
"#a c #0b0b00",
".Z c #0c0c00",
".U c #0e0e00",
"#e c #121200",
".P c #141400",
"#r c #1a1a00",
".h c #1c1c00",
"#b c #222200",
".J c #232300",
".i c #272700",
"#j c #292900",
".y c #2a2a00",
".3 c #2f2f00",
"#u c #313100",
".o c #333300",
".S c #343400",
".L c #3c3c00",
"#d c #414100",
"#G c #414141",
".O c #424200",
"#z c #424242",
"#F c #434343",
".a c #444400",
"#x c #444444",
"#o c #454500",
"#v c #454545",
"#C c #464646",
"#w c #484848",
"#A c #494949",
"#y c #4a4a4a",
"#D c #4c4c4c",
"#E c #505050",
".7 c #545400",
".1 c #555500",
".M c #5b5b00",
"#n c #5f5f00",
".H c #616100",
".9 c #676767",
"## c #686868",
"#H c #696969",
"#I c #6b6b6b",
"#B c #6c6c6c",
".z c #6e6e00",
".5 c #6f6f00",
".8 c #6f6f6f",
"#. c #707070",
".0 c #727200",
".R c #7a7a00",
"#q c #848400",
".g c #858500",
"#f c #8d8d00",
".4 c #8f8f00",
".Q c #909000",
".j c #959500",
"#t c #9a9a00",
".n c #9b9b00",
"#l c #9f9f00",
".D c #a0a000",
".u c #a1a100",
".q c #a3a300",
"#g c #a4a400",
".v c #a5a500",
".C c #a6a600",
".6 c #a7a700",
".b c #a8a800",
".2 c #b2b200",
"#c c #b6b600",
".K c #b8b800",
"#m c #bebe00",
".E c #c0c000",
"#h c #c4c400",
".t c #c5c500",
".I c #c6c600",
"#i c #cdcd00",
"#p c #cece00",
".f c #cfcf00",
".w c #d0d000",
"#k c #d4d400",
".B c #d5d500",
".k c #d7d700",
"#s c #d8d800",
".m c #dbdb00",
".T c #e1e100",
".c c #e2e200",
".N c #e7e700",
".Y c #eaea00",
".e c #f3f300",
".l c #f4f400",
".x c #f5f500",
".d c #f8f800",
".F c #f9f900",
".s c #fbfb00",
".A c #fcfc00",
".G c #fefe00",
".r c #ffff00",
"QtQtQtQtQtQtQtQtQtQtQtQt.#.#.#.#.#.#.#.#QtQtQtQtQtQtQtQtQtQtQtQt",
"QtQtQtQtQtQtQtQtQt.#.#.#.#.#.#.#.#.#.#.#.#.#.#QtQtQtQtQtQtQtQtQt",
"QtQtQtQtQtQtQt.#.#.#.#.#.#.#.#.#.#.#.#.#.#.#.#.#.#QtQtQtQtQtQtQt",
"QtQtQtQtQt.#.#.#.#.#.#.#.#.#.#.#.#.#.#.#.#.#.#.#.#.#QtQtQtQtQtQt",
"QtQtQt.#.#.#.#.#.#.#.#.#.#.#.#.#.#.#.#.#.#.#.#.#.#.#.#.#QtQtQtQt",
"QtQt.#.#.#.#.#.#.#.#.#.#.#.#.#.#.#.#.#.#.#.#.#.#.#.#.#.#.#QtQtQt",
"QtQt.#.#.#.#.#.#.#.#.#.#.#.#.#.#.#.#.#.#.#.#.#.#.#.#.#.#.#QtQtQt",
"Qt.#.#.#.#.#.#.#.#.#.#.#.#.#.#.#.#.#.#.#.#.#.#.#.#.#.#.#.#.#QtQt",
"Qt.#.#.#.#.#.a.b.c.d.e.f.g.h.#.#.#.#.#.i.j.k.l.d.m.n.o.#.#.#QtQt",
"Qt.#.#.#.p.q.r.s.t.u.v.w.r.x.y.#.#.#.z.A.r.B.C.D.E.F.G.H.#.#.#Qt",
"Qt.#.#.#.n.r.I.J.#.#.#.#.y.K.L.#.#.M.r.N.O.#.#.#.#.P.Q.R.#.#.#Qt",
"Qt.#.#.S.r.T.U.#.#.#.#.#.#.V.W.#.X.Y.A.o.#.#.#.#.#.#.#.Z.#.#.#Qt",
"Qt.#.#.j.r.0.#.#.#.#.#.#.#.#.#.#.1.r.2.#.#.#.#.#.#.#.#.#.#.#.#Qt",
"Qt.#.#.f.r.3.#.#.#.#.#.#.#.#.#.#.4.r.5.#.#.#.#.#.#.#.#.#.#.#.#Qt",
"Qt.#.#.N.r.P.#.#.#.#.#.#.#.#.#.#.6.r.7.#.#.#.#.#.#.#.#.#.#.#.#Qt",
".8.#.#.N.r.P.#.#.#.#.#.#.#.#.#.#.6.r.7.#.#.#.#.#.#.#.#.#.#.#.#.9",
"#..#.#.f.r.3.#.#.#.#.#.#.#.#.#.#.4.r.5.#.#.#.#.#.#.#.#.#.#.#.###",
"Qt.#.#.j.r.0.#.#.#.#.#.#.#.#.#.#.1.r.2.#.#.#.#.#.#.#.#.#.#.#.#Qt",
"Qt.#.#.S.r.T.U.#.#.#.#.#.#.V.W.#.X.Y.A.o.#.#.#.#.#.#.##a.#.#.#Qt",
"Qt.#.#.#.n.r.I#b.#.#.#.#.i#c.L.#.#.M.r.N#d.#.#.#.##e#f.R.#.#.#Qt",
"Qt.#.#.#.p#g.r.s#h.D#g#i.G.l#j.#.#.#.z.A.r#k.v#l#m.d.G#n.#.#.#Qt",
"Qt.#.#.#.#.##o.b.c.F.l#p#q#r.#.#.#.#.#.i.j#s.x.d.m#t#u.#.#.#.#Qt",
"Qt.#.#.#.#.#.#.#.#.#.#.#.#.#.#.#.#.#.#.#.#.#.#.#.#.#.#.#.#.#.#Qt",
"Qt.#.#.#.#.#.#.#.#.#.#.#.#.#.#.#.#.#.#.#.#.#.#.#.#.#.#.#.#.#.#Qt",
"Qt.#.#.#.#.#.#.#.#.#.#.#.#.#.#.#.#.#.#.#.#.#.#.#.#.#.#.#.#.#.#Qt",
"Qt.#.#.#.#.#.#.#.#.#.#.#.#.#.#.#.#.#.#.#.#.#.#.#.#.#.#.#.#.#.#Qt",
"QtQtQt.#.#.#.#.#.#.#.#.#.#.#.#.#.#.#.#.#.#.#.#.#.#.#.#.#.#QtQtQt",
"QtQtQtQtQt.#.#.#.#.#.#.#.#.#.#.#.#.#.#.#.#.#.#.#.#.#.#QtQtQtQtQt",
"QtQtQtQtQtQtQt#v#w.#.#.#.#.#.#.#.#.#.#.#.#.#.##x#yQtQtQtQtQtQtQt",
"QtQtQtQtQtQtQtQtQt#z#A#..#.#.#.#.#.#.#.##B#C#zQtQtQtQtQtQtQtQtQt",
"QtQtQtQtQtQtQtQtQtQtQt#D#z.##w#E#E#w#F#G#DQtQtQtQtQtQtQtQtQtQtQt",
"QtQtQtQtQtQtQtQtQtQtQtQtQtQtQt#H#IQtQtQtQtQtQtQtQtQtQtQtQtQtQtQt"};
