/* XPM */
static char *dummy[]={
"64 64 180 2",
"Qt c None",
".# c #000000",
".V c #010100",
"ai c #020200",
"#4 c #030300",
"#R c #040400",
".p c #070700",
".X c #090900",
".W c #0a0a00",
".8 c #0b0b00",
".Z c #0c0c00",
"an c #0d0d00",
".U c #0e0e00",
"#B c #101000",
"ao c #111100",
"#a c #121200",
".P c #141400",
"aD c #151500",
"a# c #171700",
"#Y c #191900",
"#n c #1a1a00",
".h c #1c1c00",
"ae c #1f1f00",
"#J c #202000",
"#G c #212100",
".9 c #222200",
".J c #232300",
"ag c #242400",
"#u c #262600",
".i c #272700",
"#E c #282800",
"#f c #292900",
".y c #2a2a00",
"al c #2c2c00",
"#y c #2d2d00",
".3 c #2f2f00",
"#M c #303000",
"#q c #313100",
".o c #333300",
".S c #343400",
"#S c #353500",
"aq c #363600",
"aw c #373700",
".L c #3c3c00",
"aA c #3e3e00",
"av c #3f3f00",
"## c #414100",
".O c #424200",
"ad c #434300",
".a c #444400",
"aS c #444444",
"#k c #454500",
"aI c #474747",
"aT c #484848",
"aO c #494949",
"aE c #4a4a00",
"#P c #4c4c00",
"aK c #4c4c4c",
"#x c #4d4d00",
"aM c #4d4d4d",
"aP c #4e4e4e",
"ac c #505000",
"aJ c #505050",
"#5 c #515100",
"aN c #515151",
"az c #525200",
"aR c #525252",
"aW c #535353",
".7 c #545400",
"aL c #545454",
".1 c #555500",
"aV c #555555",
"aU c #565656",
"aQ c #575757",
"aX c #5a5a5a",
".M c #5b5b00",
"ay c #5d5d00",
"#j c #5f5f00",
"aF c #606000",
".H c #616100",
"#v c #636300",
"as c #646400",
"#7 c #686800",
"#0 c #696900",
"#2 c #6c6c00",
".z c #6e6e00",
".5 c #6f6f00",
"ab c #707000",
"aa c #717100",
".0 c #727200",
"#N c #747400",
"#U c #767600",
"#s c #777700",
"#X c #787800",
".R c #7a7a00",
"am c #7b7b00",
"#T c #7c7c00",
"#K c #7d7d00",
"#t c #7f7f00",
"#F c #808000",
"#m c #848400",
".g c #858500",
"#Z c #8a8a00",
"#3 c #8b8b00",
"#H c #8c8c00",
"#b c #8d8d00",
".4 c #8f8f00",
".Q c #909000",
"#9 c #939300",
"#O c #949400",
".j c #959500",
"aB c #989800",
"#V c #999900",
"#p c #9a9a00",
".n c #9b9b00",
"af c #9c9c00",
"a. c #9e9e00",
"#h c #9f9f00",
".D c #a0a000",
".u c #a1a100",
"#1 c #a2a200",
".q c #a3a300",
"#c c #a4a400",
".v c #a5a500",
".C c #a6a600",
".6 c #a7a700",
".b c #a8a800",
"au c #abab00",
"aj c #acac00",
"#A c #b1b100",
".2 c #b2b200",
"ax c #b4b400",
"#. c #b6b600",
".K c #b8b800",
"#i c #bebe00",
".E c #c0c000",
"#d c #c4c400",
".t c #c5c500",
".I c #c6c600",
"#W c #c7c700",
"#Q c #c9c900",
"ar c #caca00",
"#e c #cdcd00",
"#l c #cece00",
".f c #cfcf00",
".w c #d0d000",
"#I c #d2d200",
"#g c #d4d400",
".B c #d5d500",
"aC c #d6d600",
".k c #d7d700",
"#o c #d8d800",
"#L c #d9d900",
".m c #dbdb00",
"aH c #dcdc00",
"#8 c #dddd00",
"#C c #dede00",
"#D c #dfdf00",
"#z c #e0e000",
".T c #e1e100",
".c c #e2e200",
"ap c #e3e300",
"at c #e4e400",
"ah c #e5e500",
"#6 c #e6e600",
".N c #e7e700",
"ak c #e8e800",
".Y c #eaea00",
"#r c #efef00",
"aG c #f2f200",
".e c #f3f300",
".l c #f4f400",
".x c #f5f500",
"#w c #f6f600",
".d c #f8f800",
".F c #f9f900",
".s c #fbfb00",
".A c #fcfc00",
".G c #fefe00",
".r c #ffff00",
"QtQtQtQtQtQtQtQtQtQtQtQtQtQtQtQtQtQtQtQtQtQtQtQtQtQtQtQtQtQtQtQtQtQtQtQtQtQtQtQtQtQtQtQtQtQtQtQtQtQtQtQtQtQtQtQtQtQtQtQtQtQtQtQt",
"QtQtQtQtQtQtQtQtQtQtQtQtQtQtQtQtQtQtQtQtQtQtQtQtQtQt.#.#.#.#.#.#.#.#.#.#.#.#QtQtQtQtQtQtQtQtQtQtQtQtQtQtQtQtQtQtQtQtQtQtQtQtQtQt",
"QtQtQtQtQtQtQtQtQtQtQtQtQtQtQtQtQtQtQtQtQtQt.#.#.#.#.#.#.#.#.#.#.#.#.#.#.#.#.#.#.#.#QtQtQtQtQtQtQtQtQtQtQtQtQtQtQtQtQtQtQtQtQtQt",
"QtQtQtQtQtQtQtQtQtQtQtQtQtQtQtQtQtQtQt.#.#.#.#.#.#.#.#.#.#.#.#.#.#.#.#.#.#.#.#.#.#.#.#.#.#QtQtQtQtQtQtQtQtQtQtQtQtQtQtQtQtQtQtQt",
"QtQtQtQtQtQtQtQtQtQtQtQtQtQtQtQtQt.#.#.#.#.#.#.#.#.#.#.#.#.#.#.#.#.#.#.#.#.#.#.#.#.#.#.#.#.#.#QtQtQtQtQtQtQtQtQtQtQtQtQtQtQtQtQt",
"QtQtQtQtQtQtQtQtQtQtQtQtQtQtQt.#.#.#.#.#.#.#.#.#.#.#.#.#.#.#.#.#.#.#.#.#.#.#.#.#.#.#.#.#.#.#.#.#.#QtQtQtQtQtQtQtQtQtQtQtQtQtQtQt",
"QtQtQtQtQtQtQtQtQtQtQtQtQtQt.#.#.#.#.#.#.#.#.#.#.#.#.#.#.#.#.#.#.#.#.#.#.#.#.#.#.#.#.#.#.#.#.#.#.#.#QtQtQtQtQtQtQtQtQtQtQtQtQtQt",
"QtQtQtQtQtQtQtQtQtQtQtQtQt.#.#.#.#.#.#.#.#.#.#.#.#.#.#.#.#.#.#.#.#.#.#.#.#.#.#.#.#.#.#.#.#.#.#.#.#.#.#QtQtQtQtQtQtQtQtQtQtQtQtQt",
"QtQtQtQtQtQtQtQtQtQtQt.#.#.#.#.#.#.#.#.#.#.#.#.#.#.#.#.#.#.#.#.#.#.#.#.#.#.#.#.#.#.#.#.#.#.#.#.#.#.#.#.#.#QtQtQtQtQtQtQtQtQtQtQt",
"QtQtQtQtQtQtQtQtQtQt.#.#.#.#.#.#.#.#.#.#.#.#.#.#.#.#.#.#.#.#.#.#.#.#.#.#.#.#.#.#.#.#.#.#.#.#.#.#.#.#.#.#.#.#QtQtQtQtQtQtQtQtQtQt",
"QtQtQtQtQtQtQtQtQt.#.#.#.#.#.#.#.#.#.#.#.#.#.#.#.#.#.#.#.#.#.#.#.#.#.#.#.#.#.#.#.#.#.#.#.#.#.#.#.#.#.#.#.#.#.#QtQtQtQtQtQtQtQtQt",
"QtQtQtQtQtQtQtQt.#.#.#.#.#.#.#.#.#.#.a.b.c.d.e.f.g.h.#.#.#.#.#.#.#.#.#.#.#.i.j.k.l.d.m.n.o.#.#.#.#.#.#.#.#.#.#.#QtQtQtQtQtQtQtQt",
"QtQtQtQtQtQtQt.#.#.#.#.#.#.#.#.#.p.q.r.s.t.u.v.w.r.x.y.#.#.#.#.#.#.#.#.#.z.A.r.B.C.D.E.F.G.H.#.#.#.#.#.#.#.#.#.#.#QtQtQtQtQtQtQt",
"QtQtQtQtQtQtQt.#.#.#.#.#.#.#.#.#.n.r.I.J.#.#.#.#.y.K.L.#.#.#.#.#.#.#.#.M.r.N.O.#.#.#.#.P.Q.R.#.#.#.#.#.#.#.#.#.#.#QtQtQtQtQtQtQt",
"QtQtQtQtQtQt.#.#.#.#.#.#.#.#.#.S.r.T.U.#.#.#.#.#.#.V.W.#.#.#.#.#.#.#.X.Y.A.o.#.#.#.#.#.#.#.Z.#.#.#.#.#.#.#.#.#.#.#.#QtQtQtQtQtQt",
"QtQtQtQtQt.#.#.#.#.#.#.#.#.#.#.j.r.0.#.#.#.#.#.#.#.#.#.#.#.#.#.#.#.#.1.r.2.#.#.#.#.#.#.#.#.#.#.#.#.#.#.#.#.#.#.#.#.#.#QtQtQtQtQt",
"QtQtQtQtQt.#.#.#.#.#.#.#.#.#.#.f.r.3.#.#.#.#.#.#.#.#.#.#.#.#.#.#.#.#.4.r.5.#.#.#.#.#.#.#.#.#.#.#.#.#.#.#.#.#.#.#.#.#.#QtQtQtQtQt",
"QtQtQtQt.#.#.#.#.#.#.#.#.#.#.#.N.r.P.#.#.#.#.#.#.#.#.#.#.#.#.#.#.#.#.6.r.7.#.#.#.#.#.#.#.#.#.#.#.#.#.#.#.#.#.#.#.#.#.#.#QtQtQtQt",
"QtQtQtQt.#.#.#.#.#.#.#.#.#.#.#.N.r.P.#.#.#.#.#.#.#.#.#.#.#.#.#.#.#.#.6.r.7.#.#.#.#.#.#.#.#.#.#.#.#.#.#.#.#.#.#.#.#.#.#.#QtQtQtQt",
"QtQtQt.#.#.#.#.#.#.#.#.#.#.#.#.f.r.3.#.#.#.#.#.#.#.#.#.#.#.#.#.#.#.#.4.r.5.#.#.#.#.#.#.#.#.#.#.#.#.#.#.#.#.#.#.#.#.#.#.#.#QtQtQt",
"QtQtQt.#.#.#.#.#.#.#.#.#.#.#.#.j.r.0.#.#.#.#.#.#.#.#.#.#.#.#.#.#.#.#.1.r.2.#.#.#.#.#.#.#.#.#.#.#.#.#.#.#.#.#.#.#.#.#.#.#.#QtQtQt",
"QtQt.#.#.#.#.#.#.#.#.#.#.#.#.#.S.r.T.U.#.#.#.#.#.#.V.W.#.#.#.#.#.#.#.X.Y.A.o.#.#.#.#.#.#.#.8.#.#.#.#.#.#.#.#.#.#.#.#.#.#.#.#QtQt",
"QtQt.#.#.#.#.#.#.#.#.#.#.#.#.#.#.n.r.I.9.#.#.#.#.i#..L.#.#.#.#.#.#.#.#.M.r.N##.#.#.#.##a#b.R.#.#.#.#.#.#.#.#.#.#.#.#.#.#.#.#QtQt",
"QtQt.#.#.#.#.#.#.#.#.#.#.#.#.#.#.p#c.r.s#d.D#c#e.G.l#f.#.#.#.#.#.#.#.#.#.z.A.r#g.v#h#i.d.G#j.#.#.#.#.#.#.#.#.#.#.#.#.#.#.#.#QtQt",
"Qt.#.#.#.#.#.#.#.#.#.#.#.#.#.#.#.#.##k.b.c.F.l#l#m#n.#.#.#.#.#.#.#.#.#.#.#.i.j#o.x.d.m#p#q.#.#.#.#.#.#.#.#.#.#.#.#.#.#.#.#.#.#Qt",
"Qt.#.#.#.#.#.#.#.#.#.#.#.#.#.#.#.#.#.#.#.#.#.#.#.#.#.#.#.#.#.#.#.#.#.#.#.#.#.#.#.#.#.#.#.#.#.#.#.#.#.#.#.#.#.#.#.#.#.#.#.#.#.#Qt",
"Qt.#.#.#.#.#.#.#.#.#.#.#.#.#.#.#.#.#.#.#.#.#.#.#.#.#.#.#.#.#.#.#.#.#.#.#.#.#.#.#.#.#.#.#.#.#.#.#.#.#.#.#.#.#.#.#.#.#.#.#.#.#.#Qt",
"Qt.#.#.#.#.#.#.#.#.#.#.#.#.#.#.#.#.#.#.#.#.#.#.#.#.#.#.#.#.#.#.#.#.#.#.#.#.#.#.#.#.#.#.#.#.#.#.#.#.#.#.#.#.#.#.#.#.#.#.#.#.#.#Qt",
"Qt.#.#.#.#.#.#.#.#.#.#.#.#.#.#.#.#.#.#.#.#.#.#.#.#.#.#.#.#.#.#.#.#.#.#.#.#.#.#.#.#.#.#.#.#.#.#.#.#.#.#.#.#.#.#.#.#.#.#.#.#.#.#Qt",
"Qt.#.#.#.#.#.#.#.#.#.#.#.#.#.#.#.#.#.#.#.#.#.#.#.#.#.#.#.#.#.#.#.#.#.#.#.#.#.#.#.#.#.#.#.#.#.#.#.#.#.#.#.#.#.#.#.#.#.#.#.#.#.#Qt",
"Qt.#.#.#.#.#.#.#.#.#.#.#.#.#.#.#.#.#.#.#.#.#.#.#.#.#.#.#.#.#.#.#.#.#.#.#.#.#.#.#.#.#.#.#.#.#.#.#.#.#.#.#.#.#.#.#.#.#.#.#.#.#.#Qt",
"Qt.#.#.#.#.#.#.#.#.#.#.#.#.#.#.#.#.#.#.#.#.#.#.#.#.#.#.#.#.#.#.#.#.#.#.#.#.#.#.#.#.#.#.#.#.#.#.#.#.#.#.#.#.#.#.#.#.#.#.#.#.#.#Qt",
"Qt.#.#.#.#.#.#.#.#.#.#.#.#.#.#.#.#.#.#.#.#.#.#.#.#.#.#.#.#.#.#.#.#.#.#.#.#.#.#.#.#.#.#.#.#.#.#.#.#.#.#.#.#.#.#.#.#.#.#.#.#.#.#Qt",
"Qt.#.#.#.#.#.#.#.#.#.#.#.#.#.#.#.#.#.#.#.#.#.#.#.#.#.#.#.#.#.#.#.#.#.#.#.#.#.#.#.#.#.#.#.#.#.#.#.#.#.#.#.#.#.#.#.#.#.#.#.#.#.#Qt",
"Qt.#.#.#.#.#.#.#.#.#.#.#.#.#.#.#.#.#.#.#.#.#.#.#.#.#.#.#.#.#.#.#.#.#.#.#.#.#.#.#.#.#.#.#.#.#.#.#.#.#.#.#.#.#.#.#.#.#.#.#.#.#.#Qt",
"Qt.#.#.#.#.#.#.#.#.#.#.#.#.#.#.#.#.#.#.#.#.#.#.#.#.#.#.#.#.#.#.#.#.#.#.#.#.#.#.#.#.#.#.#.#.#.#.#.#.#.#.#.#.#.#.#.#.#.#.#.#.#.#Qt",
"Qt.#.#.#.#.#.#.#.#.#.#.#.#.#.#.#.#.#.#.#.#.#.#.#.#.#.#.#.#.#.#.#.#.#.#.#.#.#.#.#.#.#.#.#.#.#.#.#.#.#.#.#.#.#.#.#.#.#.#.#.#.#.#Qt",
"Qt.#.#.#.#.#.#.#.#.#.#.#.#.#.#.#.#.#.#.#.#.#.#.#.#.#.#.#.#.#.#.#.#.#.#.#.#.#.#.#.#.#.#.#.#.#.#.#.#.#.#.#.#.#.#.#.#.#.#.#.#.#.#Qt",
"Qt.#.#.#.#.#.#.#.#.#.#.7#r#s.#.##t.t#u.#.#.#.#.#.#.#.##v#w#x.##y#z.V.p#c#A#B.#.#.#.#.#.#.#.#.##k#C.#.#.#.#.#.#.#.#.#.#.#.#.#.#Qt",
"QtQt.#.#.#.#.#.#.#.#.#.#.6#D#E.#.P#F.#.#.#.#.#.##G#H.#.##I#J.##K#L#M.##N#y.#.#.#.#.#.#.#.#.#.#.##z.#.#.#.#.#.#.#.#.#.#.#.#.#QtQt",
"QtQt.#.#.#.#.#.#.#.#.#.##O#P#Q#R.P#F.##S#T#U#p.X#V#W#X#Y#Z#0.##1#2#F.#.u.V.##j#b#T#3#4#5#6#7#8#R#z.##9a.a#.#.#.#.#.#.#.#.#.#QtQt",
"QtQt.#.#.#.#.#.#.#.#.#.##O.#.n#T.P#F.V#eaaab#c#yac#O.#.#ad.2ae.g.h.w.paf.#agahai.#aj#j.#ak#J.#.##zalam.V.#.#.#.#.#.#.#.#.#.#QtQt",
"QtQtQt.#.#.#.#.#.#.#.#.##O.#an#L.a#Faoap.#.#.#.#ac#O.#.#.p.Y#Uaq.#ar.Has.##5#..#.##U.Q.#at.#.#.#.Nau#N.#.#.#.#.#.#.#.#.#.#QtQtQt",
"QtQtQt.#.#.#.#.#.#.#.#.##O.#.#av#C#F.Vahaw.##Raoac#h.#.#.#ax.Bai.#.Rak#G.#ag#6ai.#ajay.#at.#.#.##z.X#l.S.#.#.#.#.#.#.#.#.#QtQtQt",
"QtQtQtQt.#.#.#.#.#.#.#az#g.O.#.##H#F.#aA.taB#O#G#uaC#XaD.##2aB.#.##f#C.#.#.##j.4#T#ZaiaE.laF.##5aG.O#MaH.a.#.#.#.#.#.#.#QtQtQtQt",
"QtQtQtQt.#.#.#.#.#.#.#.#.#.#.#.#.#.#.#.#.#.#.#.#.#.#.#.#.#.#.#.#.#.#.#.#.#.#.#.#.#.#.#.#.#.#.#.#.#.#.#.#.#.#.#.#.#.#.#.#QtQtQtQt",
"QtQtQtQtQt.#.#.#.#.#.#.#.#.#.#.#.#.#.#.#.#.#.#.#.#.#.#.#.#.#.#.#.#.#.#.#.#.#.#.#.#.#.#.#.#.#.#.#.#.#.#.#.#.#.#.#.#.#.#QtQtQtQtQt",
"QtQtQtQtQt.#.#.#.#.#.#.#.#.#.#.#.#.#.#.#.#.#.#.#.#.#.#.#.#.#.#.#.#.#.#.#.#.#.#.#.#.#.#.#.#.#.#.#.#.#.#.#.#.#.#.#.#.#.#QtQtQtQtQt",
"QtQtQtQtQtQt.#.#.#.#.#.#.#.#.#.#.#.#.#.#.#.#.#.#.#.#.#.#.#.#.#.#.#.#.#.#.#.#.#.#.#.#.#.#.#.#.#.#.#.#.#.#.#.#.#.#.#.#QtQtQtQtQtQt",
"QtQtQtQtQtQtQt.#.#.#.#.#.#.#.#.#.#.#.#.#.#.#.#.#.#.#.#.#.#.#.#.#.#.#.#.#.#.#.#.#.#.#.#.#.#.#.#.#.#.#.#.#.#.#.#.#.#QtQtQtQtQtQtQt",
"QtQtQtQtQtQtQt.#.#.#.#.#.#.#.#.#.#.#.#.#.#.#.#.#.#.#.#.#.#.#.#.#.#.#.#.#.#.#.#.#.#.#.#.#.#.#.#.#.#.#.#.#.#.#.#.#.#QtQtQtQtQtQtQt",
"QtQtQtQtQtQtQtQt.#.#.#.#.#.#.#.#.#.#.#.#.#.#.#.#.#.#.#.#.#.#.#.#.#.#.#.#.#.#.#.#.#.#.#.#.#.#.#.#.#.#.#.#.#.#.#.#QtQtQtQtQtQtQtQt",
"QtQtQtQtQtQtQtQtQt.#.#.#.#.#.#.#.#.#.#.#.#.#.#.#.#.#.#.#.#.#.#.#.#.#.#.#.#.#.#.#.#.#.#.#.#.#.#.#.#.#.#.#.#.#.#QtQtQtQtQtQtQtQtQt",
"QtQtQtQtQtQtQtQtQtQt.#.#.#.#.#.#.#.#.#.#.#.#.#.#.#.#.#.#.#.#.#.#.#.#.#.#.#.#.#.#.#.#.#.#.#.#.#.#.#.#.#.#.#.#QtQtQtQtQtQtQtQtQtQt",
"QtQtQtQtQtQtQtQtQtQtQt.#.#.#.#.#.#.#.#.#.#.#.#.#.#.#.#.#.#.#.#.#.#.#.#.#.#.#.#.#.#.#.#.#.#.#.#.#.#.#.#.#.#QtQtQtQtQtQtQtQtQtQtQt",
"QtQtQtQtQtQtQtQtQtQtQtQtaI.#.#.#.#.#.#.#.#.#.#.#.#.#.#.#.#.#.#.#.#.#.#.#.#.#.#.#.#.#.#.#.#.#.#.#.#.#.#aJQtQtQtQtQtQtQtQtQtQtQtQt",
"QtQtQtQtQtQtQtQtQtQtQtQtQtaK.#.#.#.#.#.#.#.#.#.#.#.#.#.#.#.#.#.#.#.#.#.#.#.#.#.#.#.#.#.#.#.#.#.#.#.#aLQtQtQtQtQtQtQtQtQtQtQtQtQt",
"QtQtQtQtQtQtQtQtQtQtQtQtQtQtQt.#.#.#.#.#.#.#.#.#.#.#.#.#.#.#.#.#.#.#.#.#.#.#.#.#.#.#.#.#.#.#.#.#.#QtQtQtQtQtQtQtQtQtQtQtQtQtQtQt",
"QtQtQtQtQtQtQtQtQtQtQtQtQtQtQtQtaM.#.#.#.#.#.#.#.#.#.#.#.#.#.#.#.#.#.#.#.#.#.#.#.#.#.#.#.#.#.#aLQtQtQtQtQtQtQtQtQtQtQtQtQtQtQtQt",
"QtQtQtQtQtQtQtQtQtQtQtQtQtQtQtQtQtQtaM.#.#.#.#.#.#.#.#.#.#.#.#.#.#.#.#.#.#.#.#.#.#.#.#.#.#aNQtQtQtQtQtQtQtQtQtQtQtQtQtQtQtQtQtQt",
"QtQtQtQtQtQtQtQtQtQtQtQtQtQtQtQtQtQtQtQtaNaO.#.#.#.#.#.#.#.#.#.#.#.#.#.#.#.#.#.#.#.#aPaQQtQtQtQtQtQtQtQtQtQtQtQtQtQtQtQtQtQtQtQt",
"QtQtQtQtQtQtQtQtQtQtQtQtQtQtQtQtQtQtQtQtQtQtQtaRaOaS.#.#.#.#.#.#.#.#.#.#.#.#aTaMaLQtQtQtQtQtQtQtQtQtQtQtQtQtQtQtQtQtQtQtQtQtQtQt",
"QtQtQtQtQtQtQtQtQtQtQtQtQtQtQtQtQtQtQtQtQtQtQtQtQtQtQtaUaRaUaVaRaWaQaQaWaXQtQtQtQtQtQtQtQtQtQtQtQtQtQtQtQtQtQtQtQtQtQtQtQtQtQtQt",
"QtQtQtQtQtQtQtQtQtQtQtQtQtQtQtQtQtQtQtQtQtQtQtQtQtQtQtQtQtQtQtQtQtQtQtQtQtQtQtQtQtQtQtQtQtQtQtQtQtQtQtQtQtQtQtQtQtQtQtQtQtQtQtQt"};
